<?xml version="1.0" encoding="iso-8859-1"?>
<!-- Generator: Adobe Illustrator 19.0.0, SVG Export Plug-In . SVG Version: 6.00 Build 0)  -->
<svg version="1.1" id="Layer_1" xmlns="http://www.w3.org/2000/svg" xmlns:xlink="http://www.w3.org/1999/xlink" x="0px" y="0px"
	 viewBox="0 0 504 504" style="enable-background:new 0 0 504 504;" xml:space="preserve">
<g>
	<path style="fill:#78909C;" d="M262.2,46.8c0-5.6-4.4-10-10-10s-10,4.4-10,10v42.8h20V46.8z"/>
	<rect x="242.2" y="93.6" style="fill:#78909C;" width="20" height="405.6"/>
</g>
<g>
	<path style="fill:#FFCDD2;" d="M237,502v2h2C238.2,504,237,503.2,237,502z"/>
	<path style="fill:#FFCDD2;" d="M237,46.8c0-0.8,0-1.6,0.4-2.4C237.4,45.2,237,46,237,46.8z"/>
</g>
<rect x="19.4" y="65.6" style="fill:#BCAAA4;" width="131.2" height="20"/>
<path style="fill:#FFCDD2;" d="M14.6,88.4v2h2C15.4,90.4,14.6,89.6,14.6,88.4z"/>
<rect x="31.4" y="6" style="fill:#EEEEEE;" width="107.2" height="55.6"/>
<path style="fill:#FFAB91;" d="M54.2,246.4c0.4,0.4,0.8,1.2,0.8,1.6v0.4h59.6V248c0-0.8,0.4-1.2,0.8-1.6c14.8-9.2,22.8-24.8,22.8-44
	V89.2H31V202C31.4,221.6,39.4,237.2,54.2,246.4z"/>
<path style="fill:#FFCDD2;" d="M27,209.6c-0.4-2.4-0.4-4.8-0.4-6.8C26.6,204.8,26.6,207.2,27,209.6z"/>
<rect x="55.4" y="252.4" style="fill:#E0E0E0;" width="59.6" height="28"/>
<polygon style="fill:#BCAAA4;" points="50.2,284.4 47.4,284.4 47.4,296.4 123,296.4 123,284.4 115.8,284.4 113.8,284.4 52.2,284.4 
	"/>
<g>
	<path style="fill:#FFCDD2;" d="M42.2,299.2v2h2C43.4,301.2,42.2,300.4,42.2,299.2z"/>
	<rect x="79" y="324" style="fill:#FFCDD2;" width="12" height="24"/>
	<path style="fill:#FFCDD2;" d="M74.2,350.8v2h2C75,352.8,74.2,352,74.2,350.8z"/>
</g>
<path style="fill:#4DB6AC;" d="M70.2,320h6h16h10c7.6,0,12.8-6.8,12.8-14.4v-5.2H55.4v5.2C55.4,313.2,62.6,320,70.2,320z"/>
<path style="fill:#FFCDD2;" d="M348.6,88.4v2h2C349.4,90.4,348.6,89.6,348.6,88.4z"/>
<rect x="353.4" y="65.6" style="fill:#BCAAA4;" width="131.2" height="20"/>
<rect x="365.4" y="6" style="fill:#EEEEEE;" width="107.2" height="55.6"/>
<rect x="389.4" y="252.4" style="fill:#E0E0E0;" width="59.6" height="28"/>
<path style="fill:#B2DFDB;" d="M388.2,246.4c0.4,0.4,0.8,1.2,0.8,1.6v0.4h59.6V248c0-0.8,0.4-1.2,0.8-1.6
	c14.8-9.2,22.8-24.8,22.8-44V89.2H365V202C365.4,221.6,373.4,237.2,388.2,246.4z"/>
<path style="fill:#FFCDD2;" d="M361,209.6c-0.4-2.4-0.4-4.8-0.4-6.8C360.6,204.8,360.6,207.2,361,209.6z"/>
<polygon style="fill:#BCAAA4;" points="384.2,284.4 381.4,284.4 381.4,296.4 457,296.4 457,284.4 449.8,284.4 447.8,284.4 
	386.2,284.4 "/>
<g>
	<path style="fill:#FFCDD2;" d="M376.2,299.2v2h2C377.4,301.2,376.2,300.4,376.2,299.2z"/>
	<path style="fill:#FFCDD2;" d="M408.2,350.8v2h2C409,352.8,408.2,352,408.2,350.8z"/>
	<rect x="413" y="324" style="fill:#FFCDD2;" width="12" height="24"/>
</g>
<path style="fill:#4DB6AC;" d="M404.2,320h6h16h10c7.6,0,12.8-7.2,12.8-14.4v-5.2h-59.6v5.2C389.4,313.2,396.6,320,404.2,320z"/>
<path d="M264.2,503.2c-2.4,0-4-1.6-4-4V46.8c0-4.4-3.6-8-8-8s-8,3.6-8,8v452.4c0,2.4-1.6,4-4,4s-4-1.6-4-4V46.8c0-8.8,7.2-16,16-16
	s16,7.2,16,16v452.4C268.2,501.2,266.2,503.2,264.2,503.2z"/>
<path d="M345.4,79.6H154.6c-2.4,0-4-1.6-4-4s1.6-4,4-4h190.8c2.4,0,4,1.6,4,4S347.8,79.6,345.4,79.6z"/>
<path d="M262.2,95.6h-20c-2.4,0-4-1.6-4-4s1.6-4,4-4h20c2.4,0,4,1.6,4,4S264.2,95.6,262.2,95.6z"/>
<path d="M85,503.2c-2.4,0-4-1.6-4-4V352c0-2.4,1.6-4,4-4s4,1.6,4,4v147.2C89,501.2,87.4,503.2,85,503.2z"/>
<path d="M152.6,91.6H17.4c-2.4,0-4-1.6-4-4v-24c0-2.4,1.6-4,4-4h135.2c2.4,0,4,1.6,4,4v24C156.6,89.6,155,91.6,152.6,91.6z
	 M21.4,83.6h127.2v-16H21.4V83.6z"/>
<path d="M140.6,65.6c-2.4,0-4-1.6-4-4V8H33.4v53.6c0,2.4-1.6,4-4,4s-4-1.6-4-4V4c0-2.4,1.6-4,4-4h111.2c2.4,0,4,1.6,4,4v57.6
	C144.6,64,143,65.6,140.6,65.6z"/>
<path d="M117,286.4H53.4c-2.4,0-4-1.6-4-4v-32c-15.6-10.8-24-27.6-24-47.6V89.6c0-2.4,1.6-4,4-4s4,1.6,4,4v112.8
	c0,18.4,8,33.2,22,42.4c1.2,0.8,2,2,2,3.2v30H113v-30.4c0-1.2,0.8-2.8,2-3.2c14-8.8,22-24,22-42V89.2c0-2.4,1.6-4,4-4s4,1.6,4,4
	v113.2c0,20.4-8.4,37.2-24,47.6v32C121,284.4,119,286.4,117,286.4z"/>
<path d="M125,302.4H45.4c-2.4,0-4-1.6-4-4v-16c0-2.4,1.6-4,4-4H125c2.4,0,4,1.6,4,4v16C129,300.4,127,302.4,125,302.4z M49.4,294.4
	H121v-8H49.4V294.4z"/>
<path d="M93,354H77c-2.4,0-4-1.6-4-4v-28c0-2.4,1.6-4,4-4h16c2.4,0,4,1.6,4,4v28C97,352,95.4,354,93,354z M81,346h8v-20h-8V346z"/>
<path d="M101.8,326h-32c-11.2,0-20.8-9.6-20.8-20.4v-5.2c0-2.4,1.6-4,4-4s4,1.6,4,4v5.2c0,6.4,6.4,12.4,12.8,12.4h32
	c6.8,0,10.8-6.4,10.8-12.4v-5.2c0-2.4,1.6-4,4-4s4,1.6,4,4v5.2C121,317.2,112.6,326,101.8,326z"/>
<path d="M419,503.2c-2.4,0-4-1.6-4-4V352c0-2.4,1.6-4,4-4s4,1.6,4,4v147.2C423,501.2,421.4,503.2,419,503.2z"/>
<path d="M486.6,91.6H351.4c-2.4,0-4-1.6-4-4v-24c0-2.4,1.6-4,4-4h135.2c2.4,0,4,1.6,4,4v24C490.6,89.6,489,91.6,486.6,91.6z
	 M355.4,83.6h127.2v-16H355.4V83.6z"/>
<path d="M474.6,65.6c-2.4,0-4-1.6-4-4V8H367.4v53.6c0,2.4-1.6,4-4,4s-4-1.6-4-4V4c0-2.4,1.6-4,4-4h111.2c2.4,0,4,1.6,4,4v57.6
	C478.6,64,477,65.6,474.6,65.6z"/>
<path d="M451,286.4h-63.6c-2.4,0-4-1.6-4-4v-32c-15.6-10.8-24-27.6-24-47.6V89.6c0-2.4,1.6-4,4-4s4,1.6,4,4v112.8
	c0,18.4,8,33.2,22,42.4c1.2,0.8,2,2,2,3.2v30H447v-30.4c0-1.2,0.8-2.8,2-3.2c14-8.8,22-24,22-42V89.2c0-2.4,1.6-4,4-4s4,1.6,4,4
	v113.2c0,20.4-8.4,37.2-24,47.6v32C455,284.4,453,286.4,451,286.4z"/>
<path d="M459,302.4h-79.6c-2.4,0-4-1.6-4-4v-16c0-2.4,1.6-4,4-4H459c2.4,0,4,1.6,4,4v16C463,300.4,461,302.4,459,302.4z
	 M383.4,294.4H455v-8h-71.6V294.4z"/>
<path d="M427,354h-16c-2.4,0-4-1.6-4-4v-28c0-2.4,1.6-4,4-4h16c2.4,0,4,1.6,4,4v28C431,352,429.4,354,427,354z M415,346h8v-20h-8
	V346z"/>
<path d="M436.2,326h-32c-11.2,0-20.8-9.6-20.8-20.4v-5.2c0-2.4,1.6-4,4-4s4,1.6,4,4v5.2c0,6.4,6.4,12.4,12.8,12.4h32
	c6.8,0,10.8-6.4,10.8-12.4v-5.2c0-2.4,1.6-4,4-4s4,1.6,4,4v5.2C455,317.2,446.6,326,436.2,326z"/>
<path d="M115,254.4H55.4c-2.4,0-4-1.6-4-4s1.6-4,4-4H115c2.4,0,4,1.6,4,4S117,254.4,115,254.4z"/>
<path d="M449,254.4h-59.6c-2.4,0-4-1.6-4-4s1.6-4,4-4H449c2.4,0,4,1.6,4,4S451,254.4,449,254.4z"/>
<path d="M103,119.2H63.4c-2.4,0-4-1.6-4-4s1.6-4,4-4H103c2.4,0,4,1.6,4,4S105,119.2,103,119.2z"/>
<path d="M103,147.2H63.4c-2.4,0-4-1.6-4-4s1.6-4,4-4H103c2.4,0,4,1.6,4,4S105,147.2,103,147.2z"/>
<path d="M103,175.2H63.4c-2.4,0-4-1.6-4-4s1.6-4,4-4H103c2.4,0,4,1.6,4,4S105,175.2,103,175.2z"/>
<path d="M103,202.8H63.4c-2.4,0-4-1.6-4-4s1.6-4,4-4H103c2.4,0,4,1.6,4,4S105,202.8,103,202.8z"/>
<path d="M441,119.2h-39.6c-2.4,0-4-1.6-4-4s1.6-4,4-4H441c2.4,0,4,1.6,4,4S443,119.2,441,119.2z"/>
<path d="M441,147.2h-39.6c-2.4,0-4-1.6-4-4s1.6-4,4-4H441c2.4,0,4,1.6,4,4S443,147.2,441,147.2z"/>
<path d="M441,175.2h-39.6c-2.4,0-4-1.6-4-4s1.6-4,4-4H441c2.4,0,4,1.6,4,4S443,175.2,441,175.2z"/>
<path d="M441,202.8h-39.6c-2.4,0-4-1.6-4-4s1.6-4,4-4H441c2.4,0,4,1.6,4,4S443,202.8,441,202.8z"/>
<g>
</g>
<g>
</g>
<g>
</g>
<g>
</g>
<g>
</g>
<g>
</g>
<g>
</g>
<g>
</g>
<g>
</g>
<g>
</g>
<g>
</g>
<g>
</g>
<g>
</g>
<g>
</g>
<g>
</g>
</svg>
