<?xml version="1.0" encoding="iso-8859-1"?>
<!-- Generator: Adobe Illustrator 19.0.0, SVG Export Plug-In . SVG Version: 6.00 Build 0)  -->
<svg version="1.1" id="Capa_1" xmlns="http://www.w3.org/2000/svg" xmlns:xlink="http://www.w3.org/1999/xlink" x="0px" y="0px"
	 viewBox="0 0 489.903 489.903" style="enable-background:new 0 0 489.903 489.903;" xml:space="preserve">
<g>
	<g>
		<g>
			<path d="M245.278,285.701c112.8-2.3,194.8-15.6,232.2-23.3c-8.2-38.5-20.6-74.7-40.4-107.7c-3.5-5.8-31.5-49.8-37.7-68.4
				c-9.7-28-8.9-58.3-7.8-86.3h-293.3c1.6,27.6,1.9,57.9-7.8,86.3c-3.2,18.2-34.2,62.6-37.7,68.4c-19.4,33.4-32.3,69.2-40.4,107.7
				C50.078,270.201,132.178,283.801,245.278,285.701z M235.578,214.201h19.1c5.8,0,10.5,4.7,10.5,10.5s-4.7,10.5-10.5,10.5h-19.1
				c-5.8,0-10.5-4.7-10.5-10.5C225.078,218.801,229.778,214.201,235.578,214.201z M99.478,131.701l7.4-3.9l-4.7-8.2
				c-2.7-5.1-0.8-11.3,4.3-14c5.1-2.7,11.3-0.8,14,4.3l4.7,8.2l7.4-3.9c5.1-2.7,11.3-0.8,14,4.3c2.7,5.1,0.8,11.3-4.3,14l-7.4,3.9
				l5.1,9.3l7.4-3.9c5.1-2.7,11.3-0.8,14,4.3s0.8,11.3-4.3,14l-7.4,3.9l5.1,9.3l7.4-3.9c5.1-2.7,11.3-0.8,14,4.3s0.8,11.3-4.3,14
				l-7.4,3.9l5.1,9.3l7.4-3.9c5.1-2.7,11.3-0.8,14,4.3s0.8,11.3-4.3,14l-7.4,3.9l5.1,9.3l7.4-3.9c5.1-2.7,11.3-0.8,14,4.3
				s0.8,11.3-4.3,14l-7.4,3.9l4.7,8.2c2.7,5.1,0.8,11.3-4.3,14c-6.6,3.2-12.4-0.8-14-4.3l-3.1-8.2l-7.4,3.9
				c-6.6,3.3-12.4-0.8-14-4.3c-2.7-5.1-0.8-11.3,4.3-14l7.4-3.9l-5.1-9.3l-7.4,3.9c-6.3,3-12.4-0.8-14-4.3c-2.7-5.1-0.8-11.3,4.3-14
				l7.4-3.9l-5.1-9.3l-7.4,3.9c-6.5,3.2-12.4-0.8-14-4.3c-2.7-5.1-0.8-11.3,4.3-14l7.4-3.9l-5.1-9.3l-7.4,3.9
				c-6.6,3.2-12.4-0.8-14-4.3c-2.7-5.1-0.8-11.3,4.3-14l7.4-3.9l-6.6-9.7l-7.4,3.9c-6.8,3-12.4-0.8-14-4.3
				C92.478,140.701,94.378,134.501,99.478,131.701z"/>
			<path d="M209.878,463.801c-0.8-78.9-154.4-119-207.3-130.3c-3.9,49-2.7,101.5-0.8,156.3h208.1V463.801z"/>
			<path d="M485.278,312.601c-1.2-10.1-2.3-20.2-4.3-29.6c-43.6,8.6-124.4,21.4-236.1,23.7c-112-2.3-192.9-15.2-236.1-23.7
				c-1.6,9.7-3.1,19.4-4.3,29.6c61.1,12.8,213.1,53.7,225.6,140.8h30C272.178,366.201,424.178,325.401,485.278,312.601z"/>
			<path d="M279.878,463.801c0,0.4,0,0.4,0,0.8v25.3h208.1c2.3-54.8,3.1-107.3-0.8-156.3
				C434.278,344.801,280.678,384.901,279.878,463.801z"/>
		</g>
	</g>
</g>
<g>
</g>
<g>
</g>
<g>
</g>
<g>
</g>
<g>
</g>
<g>
</g>
<g>
</g>
<g>
</g>
<g>
</g>
<g>
</g>
<g>
</g>
<g>
</g>
<g>
</g>
<g>
</g>
<g>
</g>
</svg>
